{
  "accessors": [
    {
      "bufferView": 2,
      "componentType": 5126,
      "count": 7907,
      "max": [
        34.48640060424805,
        15.405694961547852,
        37.63218688964844
      ],
      "min": [
        -15.513304710388184,
        -25.96977996826172,
        -41.65385055541992
      ],
      "type": "VEC3"
    },
    {
      "bufferView": 2,
      "byteOffset": 94884,
      "componentType": 5126,
      "count": 7907,
      "max": [
        0.9999744296073914,
        1.0,
        0.999993622303009
      ],
      "min": [
        -0.9999992847442627,
        -1.0,
        -0.9999555349349976
      ],
      "type": "VEC3"
    },
    {
      "bufferView": 1,
      "componentType": 5126,
      "count": 7907,
      "max": [
        0.9960313439369202,
        0.9947736859321594
      ],
      "min": [
        0.006769729778170586,
        0.0072004590183496475
      ],
      "type": "VEC2"
    },
    {
      "bufferView": 0,
      "componentType": 5125,
      "count": 33954,
      "type": "SCALAR"
    }
  ],
  "asset": {
    "extras": {
      "author": "Szewc_u (https://sketchfab.com/Szewc_u)",
      "license": "CC-BY-4.0 (http://creativecommons.org/licenses/by/4.0/)",
      "source": "https://sketchfab.com/3d-models/koko-the-clown-4736e17686434abf88afab6194819537",
      "title": "Koko The Clown"
    },
    "generator": "Sketchfab-12.65.0",
    "version": "2.0"
  },
  "bufferViews": [
    {
      "buffer": 0,
      "byteLength": 135816,
      "name": "floatBufferViews",
      "target": 34963
    },
    {
      "buffer": 0,
      "byteLength": 63256,
      "byteOffset": 135816,
      "byteStride": 8,
      "name": "floatBufferViews",
      "target": 34962
    },
    {
      "buffer": 0,
      "byteLength": 189768,
      "byteOffset": 199072,
      "byteStride": 12,
      "name": "floatBufferViews",
      "target": 34962
    }
  ],
  "buffers": [
    {
      "byteLength": 388840,
      "uri": "scene.bin"
    }
  ],
  "images": [
    {
      "uri": "textures/02_-_Default_baseColor.jpeg"
    }
  ],
  "materials": [
    {
      "doubleSided": true,
      "name": "02_-_Default",
      "pbrMetallicRoughness": {
        "baseColorTexture": {
          "index": 0
        },
        "metallicFactor": 0.0,
        "roughnessFactor": 0.6
      }
    }
  ],
  "meshes": [
    {
      "name": "Cylinder002_02 - Default_0",
      "primitives": [
        {
          "attributes": {
            "NORMAL": 1,
            "POSITION": 0,
            "TEXCOORD_0": 2
          },
          "indices": 3,
          "material": 0,
          "mode": 4
        }
      ]
    }
  ],
  "nodes": [
    {
      "children": [
        1
      ],
      "matrix": [
        1.0,
        0.0,
        0.0,
        0.0,
        0.0,
        2.220446049250313e-16,
        -1.0,
        0.0,
        0.0,
        1.0,
        2.220446049250313e-16,
        0.0,
        0.0,
        0.0,
        0.0,
        1.0
      ],
      "name": "Sketchfab_model"
    },
    {
      "children": [
        2
      ],
      "matrix": [
        1.0,
        0.0,
        0.0,
        0.0,
        0.0,
        0.0,
        1.0,
        0.0,
        0.0,
        -1.0,
        0.0,
        0.0,
        0.0,
        0.0,
        0.0,
        1.0
      ],
      "name": "b20d68cfa03a48f5a275902ddfdc3902.fbx"
    },
    {
      "children": [
        3
      ],
      "name": "RootNode"
    },
    {
      "children": [
        4
      ],
      "matrix": [
        -8.049982284294739e-08,
        -0.5306718254374233,
        -1.8416211275101542,
        0.0,
        -1.9165544509887678,
        0.0,
        8.377526216325458e-08,
        0.0,
        -3.675107515350433e-08,
        2.9177607672523136,
        -0.8407665449846679,
        0.0,
        163.95919799804688,
        87.59404754638672,
        6.384454727172852,
        1.0
      ],
      "name": "Cylinder002"
    },
    {
      "mesh": 0,
      "name": "Cylinder002_02 - Default_0"
    }
  ],
  "samplers": [
    {
      "magFilter": 9729,
      "minFilter": 9987,
      "wrapS": 10497,
      "wrapT": 10497
    }
  ],
  "scene": 0,
  "scenes": [
    {
      "name": "Sketchfab_Scene",
      "nodes": [
        0
      ]
    }
  ],
  "textures": [
    {
      "sampler": 0,
      "source": 0
    }
  ]
}
